<?xml version="1.0" encoding="UTF-8" standalone="no"?>
<!-- Created with Inkscape (http://www.inkscape.org/) -->
<svg
   xmlns:dc="http://purl.org/dc/elements/1.1/"
   xmlns:cc="http://creativecommons.org/ns#"
   xmlns:rdf="http://www.w3.org/1999/02/22-rdf-syntax-ns#"
   xmlns:svg="http://www.w3.org/2000/svg"
   xmlns="http://www.w3.org/2000/svg"
   xmlns:xlink="http://www.w3.org/1999/xlink"
   xmlns:sodipodi="http://sodipodi.sourceforge.net/DTD/sodipodi-0.dtd"
   xmlns:inkscape="http://www.inkscape.org/namespaces/inkscape"
   width="744.09448819"
   height="1052.3622047"
   id="svg2"
   sodipodi:version="0.32"
   inkscape:version="0.46"
   sodipodi:docname="kanji.svg"
   inkscape:output_extension="org.inkscape.output.svg.inkscape">
  <defs
     id="defs4">
    <inkscape:perspective
       sodipodi:type="inkscape:persp3d"
       inkscape:vp_x="0 : 526.18109 : 1"
       inkscape:vp_y="0 : 1000 : 0"
       inkscape:vp_z="744.09448 : 526.18109 : 1"
       inkscape:persp3d-origin="372.04724 : 350.78739 : 1"
       id="perspective10" />
    <inkscape:perspective
       id="perspective2390"
       inkscape:persp3d-origin="372.04724 : 350.78739 : 1"
       inkscape:vp_z="744.09448 : 526.18109 : 1"
       inkscape:vp_y="0 : 1000 : 0"
       inkscape:vp_x="0 : 526.18109 : 1"
       sodipodi:type="inkscape:persp3d" />
  </defs>
  <sodipodi:namedview
     id="base"
     pagecolor="#ffffff"
     bordercolor="#666666"
     borderopacity="1.0"
     gridtolerance="10000"
     guidetolerance="10"
     objecttolerance="10"
     inkscape:pageopacity="0.0"
     inkscape:pageshadow="2"
     inkscape:zoom="3.4802131"
     inkscape:cx="324.73827"
     inkscape:cy="519.83204"
     inkscape:document-units="px"
     inkscape:current-layer="layer2"
     showgrid="false"
     inkscape:window-width="1680"
     inkscape:window-height="1000"
     inkscape:window-x="0"
     inkscape:window-y="25" />
  <metadata
     id="metadata7">
    <rdf:RDF>
      <cc:Work
         rdf:about="">
        <dc:format>image/svg+xml</dc:format>
        <dc:type
           rdf:resource="http://purl.org/dc/dcmitype/StillImage" />
      </cc:Work>
    </rdf:RDF>
  </metadata>
  <g
     inkscape:label="bitmap"
     inkscape:groupmode="layer"
     id="layer1"
     sodipodi:insensitive="true"
     style="display:none">
    <image
       y="474.86218"
       x="317.5"
       id="image2392"
       height="115"
       width="115"
       sodipodi:absref="/home/jest/svn/amppz-tasks/2008/xml/pastedpic_11122008_211552.png"
       xlink:href="/home/jest/svn/amppz-tasks/2008/xml/pastedpic_11122008_211552.png" />
  </g>
  <g
     inkscape:groupmode="layer"
     id="layer2"
     inkscape:label="vector">
    <path
       style="fill:#000000"
       d="M 385,588.33418 C 379.8557,586.63875 372.73818,586.53869 366.97262,588.08074 C 361.51013,589.54174 359.61685,588.66429 358.02399,583.93342 C 355.98823,577.88717 350.13298,576.00324 345.26877,579.82943 C 342.21629,582.23051 341.5,581.64475 341.5,576.74743 C 341.5,573.6946 342.43173,571.84642 346.33573,567.15529 C 351.95917,560.39804 353.83323,557.21038 352.98723,555.84151 C 350.97793,552.5904 342.5,558.63782 342.5,563.3222 C 342.5,565.95794 336.57374,571.15233 332.14853,572.39531 C 330.96684,572.72723 327.61066,573.93122 324.69035,575.07084 C 320.86128,576.5651 319.07704,576.83922 318.2917,576.05388 C 316.7932,574.55538 317.9515,573.01651 333.84467,555.39081 C 341.26953,547.15656 347.14447,540.09594 346.9001,539.70054 C 346.05891,538.33946 340.77401,540.96538 339.72621,543.26505 C 338.84122,545.20739 337.68998,545.65785 332.38064,546.13929 C 325.79401,546.73654 322.5,545.79898 322.5,543.327 C 322.5,540.1847 326.60277,538.19774 341.84574,533.95795 L 357.67989,529.55371 L 354.62438,527.16242 C 350.95688,524.29217 349.51313,519.68084 349.50558,510.81307 L 349.5,504.26396 L 346,502.99834 C 344.075,502.30225 342.5,501.34098 342.5,500.86218 C 342.5,500.38338 344.075,499.42211 346,498.72602 C 348.96734,497.65301 349.5,496.99218 349.5,494.3838 C 349.5,492.69167 348.79893,490.30628 347.94207,489.08293 C 346.18586,486.57559 346.91895,484.42523 349.2279,485.31126 C 350.06698,485.63324 351.3868,485.37109 352.16084,484.7287 C 354.25229,482.99295 358.03008,485.37619 359.66036,489.4598 L 361,492.8154 L 365.25,490.88768 C 369.31696,489.04299 369.5,488.76986 369.5,484.54593 C 369.5,479.54472 372.43637,474.86218 375.57258,474.86218 C 376.63266,474.86218 377.5,475.22932 377.5,475.67804 C 377.5,476.12676 379.3,477.50555 381.5,478.74202 C 384.44326,480.39623 385.5,481.62868 385.5,483.40711 C 385.5,485.15122 386.19597,485.99876 388,486.45154 C 391.27058,487.2724 391.1617,489.20358 387.65314,492.60348 C 385.30727,494.8767 384.51535,496.97126 383.15314,504.50551 C 382.24391,509.53435 381.5,515.54931 381.5,517.87209 C 381.5,521.72888 381.69524,522.05322 383.75,521.61004 C 404.0345,517.23495 403.15582,517.32763 406.99458,519.1582 C 408.9812,520.10556 410.33107,521.3265 409.99429,521.87142 C 409.65751,522.41634 410.30852,522.86218 411.44098,522.86218 C 413.76213,522.86218 414.07622,523.88596 412.3,525.66218 C 410.78643,527.17575 407.32576,527.18987 402.36212,525.70272 C 395.8129,523.74053 378.49997,527.68394 378.50002,531.13786 C 378.50004,532.83973 401.3318,549.86218 403.61445,549.86218 C 404.11643,549.86218 405.30853,550.28809 406.26357,550.80866 C 407.21861,551.32922 411.15,552.90887 415,554.31899 C 432.34687,560.67254 436.99762,565.32272 427.81327,567.13068 C 424.2172,567.83858 422.80643,567.54385 417.81327,565.04155 C 414.57662,563.41952 410.93612,562.29829 409.59971,562.51188 C 406.90831,562.94203 407.58378,563.47328 394.08593,550.31062 L 384.17187,540.64274 L 383.08593,544.00246 C 382.15276,546.88957 380.83787,547.92003 373.73856,551.32787 C 369.19477,553.509 365.65113,555.759 365.8638,556.32787 C 366.07648,556.89674 365.10193,558.59499 363.69814,560.10175 C 360.99574,563.00239 361.42108,565.12107 364.29796,563.08953 C 368.15065,560.36891 371.69982,558.78472 377.08439,557.38221 C 384.49176,555.45284 389.88203,556.71965 394.86687,561.56142 C 400.25207,566.79206 399.83008,568.63735 391.78651,575.03118 C 388.31339,577.79195 388.36271,578.0096 393,580.38693 C 396.06237,581.95687 396.0258,585.30343 392.91957,587.74679 C 391.44046,588.91025 389.95347,589.815 389.61514,589.75733 C 389.27681,589.69966 387.2,589.05924 385,588.33418 z M 368.13747,579.89684 C 370.96307,578.27622 374.33807,575.55668 375.63747,573.8534 C 376.93686,572.15013 379.54593,568.94593 381.43539,566.73296 C 384.23126,563.45839 384.60357,562.54029 383.43539,561.80109 C 380.29995,559.81705 374.05646,560.84069 367.5,564.41374 C 363.925,566.362 360.21467,568.21183 359.25482,568.52447 C 357.76313,569.01036 357.60137,569.91132 358.14112,574.72755 C 358.78741,580.49444 359.87805,582.86939 361.87244,582.8528 C 362.4926,582.84763 365.31186,581.51745 368.13747,579.89684 z M 369.21788,541.25623 C 370.98772,540.4895 374.25022,539.86218 376.46788,539.86218 C 381.1401,539.86218 381.44275,539.09648 378.03566,535.89568 C 375.91734,533.90562 374.91485,533.67054 370.89592,534.22139 C 367.11195,534.74004 365.97216,534.52856 364.91793,533.1122 C 363.68668,531.45802 363.51039,531.47171 361.69884,533.36218 C 359.05757,536.11853 353.39398,546.42283 354.12079,547.14964 C 354.44685,547.4757 357.25307,546.59674 360.35682,545.19638 C 363.46057,543.79602 367.44805,542.02296 369.21788,541.25623 z M 370.40631,525.95541 L 375.81262,524.33714 L 373.29368,521.40871 L 370.77475,518.48028 L 369.60219,520.67123 C 368.75199,522.25985 367.50399,522.86218 365.06264,522.86218 C 362.21897,522.86218 361.53275,523.32948 360.64755,525.86875 C 359.45772,529.2819 359.29789,529.28048 370.40631,525.95541 z M 368.5,515.05994 C 374.10148,513.17331 373.71599,513.57092 372.94026,510.48018 C 372.16745,507.40104 370.26344,507.17279 364.52024,509.47076 C 360.89923,510.9196 360.5,511.42675 360.5,514.57775 C 360.5,517.52872 360.77384,517.95875 362.25,517.32587 C 363.2125,516.91321 366.025,515.89354 368.5,515.05994 z M 367.5,503.97903 C 369.72598,502.94576 371.11653,501.53516 371.32014,500.10381 C 371.78221,496.85544 369.3488,496.39313 364.07287,498.72692 C 360.05007,500.50639 359.5,501.12546 359.5,503.87334 C 359.5,507.33572 360.24738,507.34559 367.5,503.97903 z"
       id="path2396" />
  </g>
</svg>
